<svg version="1" xmlns="http://www.w3.org/2000/svg" width="600" height="600" viewBox="0 0 450.000000 450.000000"><path d="M212 36.1c-23.4 1.5-49.3 8.6-71 19.3-16.2 8-21.4 11.5-19.9 13.2 1.3 1.5 2 1.8 1.6.6-.1-.4.3-.8.8-1 .6-.2 1.8-1.1 2.8-1.9.9-.9 1.7-1.2 1.7-.8 0 .4.9 0 2.1-1.1 1.2-1 2.4-1.9 2.8-1.9.3 0 .5-.3.4-.7-.1-.3.5-.5 1.5-.3.9.1 2.5-.4 3.5-1.3.9-.8 1.7-1.1 1.7-.7 0 .4 1 0 2.2-1.1 1.3-1.2 1.8-1.3 1.3-.4-.8 1.3-.7 1.3 1 0 1-.8 2-1.4 2.2-1.2.3.2.8 0 1.1-.4.4-.4.1-.4-.7.1-.9.5-1.2.4-.8-.2.4-.6 2-.9 3.6-.8 1.8.1 2.9-.2 2.8-.8-.1-.6 1.2-1.1 3-1.2 1.7 0 3.5-.4 4-.9s.2-.6-.6-.1c-.9.5-1.2.4-.8-.2.4-.6 2-.9 3.7-.8 1.7.1 3.3-.2 3.7-.8.4-.6.1-.7-.8-.2-.8.5-1 .4-.6 0 1.2-1.4 3.8-1.5 3-.2-.5.9-.3.9.8.1.8-.6 2.7-1 4.2-.9 1.5.1 3-.3 3.4-.8.4-.6.1-.7-.7-.2-.8.5-1.1.4-.7-.2.4-.5 2.5-.9 4.7-.8 2.2.1 4.3-.2 4.6-.6.2-.5 1.1-.6 1.9-.2.9.3 2.2 0 2.9-.6 1-.9 1.6-.9 2.1-.1.4.6 1.2.7 1.8.2 1.5-1 24.7-1 26.4.1.6.4 1.4.3 1.8-.3.4-.6 1.2-.7 1.8-.3.7.4 1.5.8 2 .9.4.1.9.3 1.2.4.3.1 2.7.3 5.3.4 2.7 0 5.7.8 6.7 1.6 1.7 1.3 1.8 1.3 1 0-.7-1.2-.6-1.3.6-.4.8.6 2.6 1 4.1.9 1.5-.1 2.6.3 2.5.9-.1.5 1.2 1 2.8 1.1 1.7 0 3.7.5 4.5 1 .8.5 2.2 1 3 1 .8 0 2.2.5 3 1 .8.5 2.2 1 3.1 1 .9 0 2.2.5 3 1.1.8.6 2.2 1 3.1.9 1-.2 1.6 0 1.5.5-.1.4.1.7.4.6.4 0 1.5.6 2.5 1.5 1.1.9 2.7 1.5 3.6 1.4 1-.2 1.6 0 1.5.5-.1.4.1.7.4.6.4 0 1.5.6 2.5 1.5 1.1.9 2.7 1.5 3.6 1.4 1-.2 1.6 0 1.5.5-.1.4.2.8.6.8.5 0 2.3 1.3 3.9 2.9 1.7 1.5 2.7 2.1 2.3 1.3-.8-1.3-.6-1.3.8-.1.9.7 1.4 1.7 1.2 2.2-.3.4.3.6 1.5.4 1.1-.2 1.9 0 1.7.5-.1.4.2.8.6.8.5 0 2.1 1.2 3.6 2.6 1.5 1.5 3.1 2.3 3.6 1.9.4-.5.5-.3.2.3-.4.6.3 2 1.6 3 2.1 1.9 2.1 1.9.7-.1-1.4-2-1.4-2 .7-.1 1.3 1 2 2.3 1.7 2.8-.3.4 0 .7.8.6.7-.2 1.2.3 1.1.9-.2.7.3 1.2 1 1 .6-.1 1.1.3 1 1-.2.7.6 1 1.7.8 1.2-.2 1.8 0 1.5.5-.3.5-.1 1.1.5 1.5.6.4.8 1 .5 1.5-.3.5.4.7 1.5.5 1.1-.2 1.8 0 1.5.5-.3.5-.1 1.1.5 1.5.6.4.8 1.1.4 1.6-.3.5 0 .8.8.7.7-.2 1.2.3 1.1.9-.2.7.3 1.2 1 1 .6-.1 1.1.4.9 1.1-.1.8.2 1.1.7.8.5-.3 1.4 0 1.9.7 1.2 1.5-.1 4.1-20.3 41l-12.9 23.6-9.3-17.2c-5.1-9.5-15.7-29.2-23.5-43.9-7.9-14.7-14.6-26.4-15-26-.3.4-10.8 20-23.3 43.7-12.4 23.6-23 43.3-23.4 43.8-.4.4-7.6-11.3-15.9-26-8.4-14.8-15.6-27.4-16.1-28.1-.6-1-3.7 3.6-10.5 15.2-5.3 9.1-9.6 16.9-9.6 17.3 0 1.8 51.4 96.2 52.1 95.6.4-.5 11.3-21.6 24.4-47.1 13-25.4 24-46.2 24.4-46.2.3 0 11.2 21.1 24.1 47 12.9 25.8 23.8 46.6 24.1 46.2.4-.4 12.6-24.8 27.1-54.2 14.5-29.4 26.7-54.1 27.2-54.8 1.9-3.1 16.5 23.2 22.3 40.3 9.3 27.2 11.1 56.2 5.3 84-6.3 30.6-20.8 57.2-43.6 80.1-22.3 22.4-46.9 35.7-80.4 43.6-13 3-47.8 3.3-61 .5-13.9-3-30.9-8.6-40.4-13.4-16-8-34.9-21.4-34.4-24.2.4-1.9 33.1-61 33.8-61.1.3 0 10.7 19.5 23.1 43.2 12.5 23.8 23.1 43.3 23.5 43.5.5.1 10.8-18.2 22.9-40.8 12.1-22.6 22.8-42.4 23.8-44.1l1.8-3.1 15.3 28.3c8.4 15.5 15.7 28.2 16.2 28.2s4.7-7.9 9.3-17.7l8.5-17.7-23.9-47.4c-13.2-26-24.3-47.4-24.6-47.4-.4 0-11.6 20.8-24.9 46.2-13.4 25.5-24.5 46.6-24.9 47-.3.4-10.9-20.5-23.5-46.3-12.7-25.9-23.3-47.2-23.7-47.5-.4-.2-13.7 25.2-29.5 56.6-15.7 31.3-28.9 57-29.3 57-1.4 0-6.1-5.7-5.4-6.4.5-.4.1-.6-.7-.4-.8.1-1.4-.3-1.2-1 .1-.6-.3-1.1-1-1-.6.2-1.7-.7-2.3-2-.7-1.2-2.2-3.4-3.5-4.7-1.3-1.3-2.8-3.5-3.5-4.7-.6-1.3-1.8-2.2-2.6-2-.8.2-1.1 0-.6-.4.4-.4-.1-1.6-1-2.7-1.3-1.5-1.4-1.8-.3-1.2 1.1.6 1 .3-.3-1.2-.9-1.1-1.4-2.3-1-2.8.5-.4.2-.5-.4-.1-.8.4-1.3.2-1.3-.5s-1-2.4-2.2-3.7c-1.3-1.4-1.6-2.2-.8-1.7.8.5.4-.4-1-2s-1.8-2.5-1-2c.9.5.8-.1-.5-1.6-1.1-1.3-2.6-3.5-3.3-4.8-1.1-1.9-1.1-2.2 0-1.5.7.4.2-.5-1.2-2.1s-2-2.5-1.3-2.2c.8.5.8.1 0-1.7-.7-1.3-1.5-2.3-1.8-2-.4.2-.6-.4-.6-1.4 0-4.2-.3-5.3-1.5-4.6-.6.4-.8.3-.5-.3.3-.5 0-2.2-.8-3.7s-.9-2.4-.3-2c.7.5.8.3.2-.7-.5-.8-.9-2.1-.9-3 0-.9-.6-2.3-1.3-3.2-.9-1.1-1-1.7-.2-2.2.8-.5.8-1.1.1-1.9-.6-.7-1.2-2.1-1.4-3.2-.1-1-.6-2.4-1-3.1-.4-.6-.3-1.4.3-1.8.6-.4.7-1.2.3-1.8-.4-.7-.8-2-.9-3-.1-.9-.3-1.9-.4-2.2-.1-.3-.4-1-.5-1.5-.1-.6-.3-1.1-.5-1.3-.6-.7-.7-3.6-.1-3.3.9.6.8-9.6-.2-11.1-.4-.6-.3-1.5.3-1.8.8-.5.8-1.1.1-1.9-.6-.7-.8-1.6-.4-2 1-.9 1.1-11.6.2-11-.8.4-.6-1.2.4-3.6.4-.8.8-2.9 1.1-4.5.2-1.7.5-3 .6-3 .1 0 .3-.8.5-1.8.2-.9 0-1.5-.5-1.2-1.2.7-.7-1.5 1.2-5.2 1-2 1.3-3.5.7-3.9-.6-.4-.6-1 0-1.8.6-.7 1.2-2.1 1.4-3.2.1-1 .7-2.5 1.1-3.3.7-1 .5-1.2-.5-.6-.8.5-.4-.3.9-1.7 1.6-1.8 2-2.8 1.2-3.3s-.6-1.3.6-2.6c.9-1 1.4-1.9.9-1.9-.4 0-.2-.7.5-1.5s.9-1.5.5-1.5c-.5 0 0-1 1.1-2.2 1.2-1.4 1.4-1.8.4-1.3-.8.4-.4-.4 1-2s1.8-2.5 1-2-.4-.4 1-2 1.8-2.5 1-2-.4-.4 1-2 1.8-2.5 1-2-.4-.4 1-2 1.8-2.5 1-2-.5-.3.7-1.6 2.3-2.9 2.5-3.4c.2-.6.8-.8 1.3-.7.6.2.7 0 .2-.4-.4-.4 0-1.6 1-2.6.9-1 1.2-1.8.8-1.8-.5 0 .4-1.3 1.9-2.9 1.5-1.6 2.9-3.3 2.9-3.8.1-.4.6-.7 1.1-.5.5.2.3-.5-.4-1.5-.8-1-1-1.5-.5-1 1.1.9 7.5-5.1 7.5-7.1 0-.7.5-1 1-.7.6.3 1-.1 1-1s.5-1.3 1-1c.6.4.9.1.8-.7-.2-.7.3-1.2 1-1 .8.1 1.1-.2.8-.6-.7-1.2 2.8-4.4 3.9-3.5.4.5.5.3.2-.3-.7-1.3 2.6-4.7 3.6-3.7.4.3.7-.1.7-1.1 0-.9.5-1.4 1-1.1.6.4.9.3.8-.2-.2-.4.1-.9.5-1 .5 0 2.1-1.3 3.6-2.7 1.5-1.5 3.1-2.3 3.5-1.9.4.5.6.1.4-.7-.2-.8.3-1.4.9-1.3.7.2 1.2 0 1-.5-.1-.4.2-.8.6-.9.5 0 2.2-1.4 3.8-2.9 1.6-1.5 2.9-2.4 2.9-2 0 .5.7.3 1.5-.4 1-.8 1.2-1.7.6-2.3-1.3-1.3-8.5 3.8-19.9 14.1-12.3 11.1-17.5 16.8-16.6 18.3.4.7.3.9-.4.6-1.4-.9-10.4 9.3-9.8 11 .3.8.2 1.2-.3.9-1.3-.8-11.2 14.7-17.7 27.6-7 14-12.5 29.9-16.1 47.1-2.5 12.2-2.7 15-2.7 36.2 0 21.2.2 24 2.7 36.2 3.6 17.2 9.1 33.1 16.2 47.2 5.7 11.5 16.9 29.1 22.5 35.5l3.1 3.5L76 357c-2.8 5.6-5 10.3-4.8 10.5.2.2 7.5.6 16.3 1 14.7.7 16.2.9 18.5 3 5.1 4.6 24 16.5 34.6 21.8 14.8 7.4 31.5 13.1 48.1 16.4 12.6 2.5 15.7 2.7 36.3 2.7 20.4-.1 23.7-.3 35.7-2.8 25.5-5.2 48.3-14.8 70.2-29.6 27.5-18.7 47.3-41.3 62.4-71.6 30.2-60.5 25.7-132.5-11.6-188.3-3.9-5.8-8.5-12.4-10.4-14.5-1.8-2.2-3.3-4.4-3.3-4.8 0-.5 2.2-5.6 4.9-11.3l5-10.5h-15.7c-10.6 0-16.4-.4-17.8-1.3-1.2-.6-7.5-4.9-14.1-9.4-15.7-10.6-29.4-17.4-46.2-22.8-17.1-5.5-31-8.3-44.8-9-6-.4-11.7-.7-12.8-.9-1.1-.1-7.6.1-14.5.5z"/></svg>